<?xml version="1.0" encoding="utf-8"?>
<!-- Generator: Adobe Illustrator 19.0.0, SVG Export Plug-In . SVG Version: 6.00 Build 0)  -->
<svg version="1.1" id="Layer_1" xmlns="http://www.w3.org/2000/svg" xmlns:xlink="http://www.w3.org/1999/xlink" x="0px" y="0px"
	 viewBox="0 0 96 96" style="enable-background:new 0 0 96 96;" xml:space="preserve">
<style type="text/css">
	.st0{fill:#333333;}
</style>
<g id="XMLID_2_">
	<path id="XMLID_6_" class="st0" d="M63.7,52.9v9.8c0,2.4-0.9,4.5-2.6,6.2s-3.8,2.6-6.2,2.6H29.3c-2.4,0-4.5-0.9-6.2-2.6
		c-1.7-1.7-2.6-3.8-2.6-6.2V37.2c0-2.4,0.9-4.5,2.6-6.2c1.7-1.7,3.8-2.6,6.2-2.6h21.6c0.3,0,0.5,0.1,0.7,0.3
		c0.2,0.2,0.3,0.4,0.3,0.7v2c0,0.3-0.1,0.5-0.3,0.7c-0.2,0.2-0.4,0.3-0.7,0.3H29.3c-1.4,0-2.5,0.5-3.5,1.4s-1.4,2.1-1.4,3.5v25.5
		c0,1.4,0.5,2.5,1.4,3.5c1,1,2.1,1.4,3.5,1.4h25.5c1.4,0,2.5-0.5,3.5-1.4c1-1,1.4-2.1,1.4-3.5v-9.8c0-0.3,0.1-0.5,0.3-0.7
		c0.2-0.2,0.4-0.3,0.7-0.3h2c0.3,0,0.5,0.1,0.7,0.3C63.6,52.4,63.7,52.6,63.7,52.9z M75.5,26.4v15.7c0,0.5-0.2,1-0.6,1.4
		s-0.8,0.6-1.4,0.6s-1-0.2-1.4-0.6l-5.4-5.4l-20,20c-0.2,0.2-0.4,0.3-0.7,0.3s-0.5-0.1-0.7-0.3l-3.5-3.5c-0.2-0.2-0.3-0.4-0.3-0.7
		s0.1-0.5,0.3-0.7l20-20l-5.4-5.4c-0.4-0.4-0.6-0.8-0.6-1.4c0-0.5,0.2-1,0.6-1.4s0.8-0.6,1.4-0.6h15.7c0.5,0,1,0.2,1.4,0.6
		S75.5,25.9,75.5,26.4z"/>
</g>
</svg>
