<?xml version="1.0" encoding="utf-8"?>
<!-- www.vectorico.com  -->
<svg version="1.1" id="in" xmlns="http://www.w3.org/2000/svg" xmlns:xlink="http://www.w3.org/1999/xlink" x="0px" y="0px"
	 viewBox="0 0 64 64" style="enable-background:new 0 0 64 64;" xml:space="preserve">
<style type="text/css">
	.st0{fill:#007BB5;}
	.st1{fill:#FFFFFF;}
</style>
<circle class="st0" cx="32" cy="32" r="32"/>
<path class="st1" d="M12.4,25h8.3v26.7h-8.3V25z M16.5,11.8c2.6,0,4.8,2.1,4.8,4.8c0,2.6-2.1,4.8-4.8,4.8s-4.8-2.1-4.8-4.8
	C11.7,13.9,13.8,11.8,16.5,11.8"/>
<path class="st1" d="M25.8,25h8v3.6h0.1c1.1-2.1,3.8-4.3,7.8-4.3c8.4,0,10,5.5,10,12.7v14.6h-8.3v-13c0-3.1-0.1-7.1-4.3-7.1
	c-4.3,0-4.9,3.4-4.9,6.9v13.2h-8.3L25.8,25L25.8,25z"/>
</svg>
