<?xml version="1.0" standalone="no"?>
<!DOCTYPE svg PUBLIC "-//W3C//DTD SVG 20010904//EN"
 "http://www.w3.org/TR/2001/REC-SVG-20010904/DTD/svg10.dtd">
<svg version="1.0" xmlns="http://www.w3.org/2000/svg"
 width="512.000000pt" height="512.000000pt" viewBox="0 0 512.000000 512.000000"
 preserveAspectRatio="xMidYMid meet">

<g transform="translate(0.000000,512.000000) scale(0.100000,-0.100000)"
fill="#ea412c" stroke="none">
<path d="M2367 5109 c-1083 -77 -2015 -858 -2283 -1913 -270 -1061 159 -2171
1071 -2771 327 -215 672 -343 1080 -401 159 -23 486 -23 648 -1 588 81 1115
346 1512 758 383 399 612 866 696 1424 28 183 30 502 5 680 -93 655 -401 1220
-886 1627 -425 357 -921 558 -1475 598 -154 11 -208 11 -368 -1z m858 -1660
c289 -12 360 -25 435 -77 141 -96 180 -273 180 -812 0 -585 -43 -746 -226
-838 -62 -31 -137 -40 -453 -53 -320 -13 -1254 -6 -1436 11 -382 35 -445 161
-445 880 0 539 39 716 180 812 73 50 153 66 395 77 283 12 1096 12 1370 0z"/>
<path d="M2300 2590 c0 -192 3 -350 7 -350 5 0 662 338 671 345 2 2 -440 234
-660 347 -17 8 -18 -11 -18 -342z"/>
</g>
</svg>
